<?xml version="1.0" standalone="no"?>
<!DOCTYPE svg PUBLIC "-//W3C//DTD SVG 20010904//EN"
 "http://www.w3.org/TR/2001/REC-SVG-20010904/DTD/svg10.dtd">
<svg version="1.0" xmlns="http://www.w3.org/2000/svg"
 width="622.000000pt" height="152.000000pt" viewBox="0 0 622.000000 152.000000"
 preserveAspectRatio="xMidYMid meet">

<g transform="translate(0.000000,152.000000) scale(0.100000,-0.100000)"
fill="#000000" stroke="none">
<path d="M4030 1235 l0 -285 40 0 40 0 0 185 c0 102 4 185 9 185 4 0 32 -26
62 -57 29 -32 115 -123 191 -202 l138 -143 0 291 0 291 -40 0 -40 0 0 -187 -1
-188 -192 198 c-106 109 -195 198 -199 197 -5 0 -8 -128 -8 -285z"/>
<path d="M2479 1495 c-62 -20 -136 -87 -165 -150 -31 -66 -33 -179 -4 -242 26
-59 100 -128 157 -147 107 -37 206 -16 279 58 55 54 74 98 74 174 l0 42 -110
0 -110 0 0 -35 0 -35 65 0 c74 0 81 -10 43 -66 -94 -137 -314 -69 -334 102 -4
31 -1 66 6 88 26 80 113 145 194 146 48 0 119 -33 146 -68 l21 -26 31 31 31
31 -34 32 c-77 71 -191 97 -290 65z"/>
<path d="M3099 1495 c-62 -20 -136 -87 -165 -150 -31 -64 -33 -180 -5 -240 44
-98 125 -155 229 -163 98 -6 145 10 208 72 56 56 74 99 74 174 l0 42 -110 0
-110 0 0 -35 0 -35 66 0 66 0 -7 -27 c-8 -33 -49 -79 -87 -99 -69 -36 -179 -1
-232 73 -94 135 7 323 175 323 42 0 113 -34 139 -68 l20 -25 30 28 30 29 -32
34 c-18 18 -51 43 -73 54 -52 27 -154 33 -216 13z"/>
<path d="M0 1300 l0 -200 518 0 517 0 200 200 200 200 -718 0 -717 0 0 -200z"/>
<path d="M1870 1225 l0 -275 150 0 150 0 0 40 0 40 -110 0 -110 0 0 90 0 90
110 0 110 0 0 40 0 40 -110 0 -110 0 0 65 0 65 110 0 110 0 0 40 0 40 -150 0
-150 0 0 -275z"/>
<path d="M3580 1225 l0 -275 150 0 150 0 0 40 0 40 -110 0 -110 0 0 90 0 90
110 0 110 0 0 40 0 40 -110 0 -110 0 0 65 0 65 110 0 110 0 0 40 0 40 -150 0
-150 0 0 -275z"/>
<path d="M1330 1265 l-165 -165 168 0 167 0 0 165 c0 91 -1 165 -3 165 -1 0
-76 -74 -167 -165z"/>
<path d="M0 750 l0 -200 243 0 242 0 200 200 200 200 -443 0 -442 0 0 -200z"/>
<path d="M815 750 l-200 -200 443 0 442 0 0 200 0 200 -243 0 -242 0 -200
-200z"/>
<path d="M2047 572 c-6 -9 -203 -430 -243 -519 l-24 -53 46 0 45 0 30 65 29
65 119 0 118 0 28 -65 27 -65 44 0 c24 0 44 3 44 8 0 7 -249 563 -255 570 -2
2 -5 -1 -8 -6z m83 -359 c0 -2 -36 -3 -80 -3 -44 0 -80 2 -80 4 0 2 18 44 41
92 l40 88 40 -89 c21 -49 39 -90 39 -92z"/>
<path d="M2410 276 l0 -276 40 0 40 0 0 111 c0 82 3 110 12 107 7 -3 46 -52
87 -111 l74 -107 48 0 c27 0 49 3 49 6 0 4 -36 56 -81 116 -44 61 -79 111 -77
111 63 31 80 45 99 84 26 53 22 121 -8 162 -38 50 -79 65 -185 69 l-98 4 0
-276z m203 166 c13 -14 21 -34 21 -57 0 -50 -30 -77 -93 -83 l-51 -5 0 88 0
88 51 -5 c33 -4 58 -12 72 -26z"/>
<path d="M2880 275 l0 -275 40 0 40 0 0 108 c0 103 11 151 28 126 4 -6 48 -61
97 -122 l90 -112 59 0 59 0 -20 23 c-63 70 -223 267 -223 274 0 4 55 63 122
130 l123 123 -60 0 -60 0 -107 -107 -108 -108 0 108 0 107 -40 0 -40 0 0 -275z"/>
<path d="M3390 275 l0 -275 40 0 40 0 0 275 0 275 -40 0 -40 0 0 -275z"/>
<path d="M3590 510 l0 -40 60 0 60 0 0 -235 0 -235 45 0 45 0 0 235 0 235 60
0 60 0 0 40 0 40 -165 0 -165 0 0 -40z"/>
<path d="M4030 275 l0 -275 150 0 150 0 0 40 0 40 -110 0 -110 0 0 90 0 90
110 0 110 0 0 40 0 40 -110 0 -110 0 0 65 0 65 110 0 110 0 0 40 0 40 -150 0
-150 0 0 -275z"/>
<path d="M4480 275 l0 -275 40 0 40 0 0 108 c0 103 11 151 28 126 4 -6 48 -61
97 -122 l90 -112 59 0 59 0 -20 23 c-63 70 -223 267 -223 274 0 4 55 63 122
130 l123 123 -60 0 -60 0 -107 -107 -108 -108 0 108 0 107 -40 0 -40 0 0 -275z"/>
<path d="M4960 510 l0 -40 65 0 65 0 0 -235 0 -235 40 0 40 0 0 235 0 235 65
0 65 0 0 40 0 40 -170 0 -170 0 0 -40z"/>
<path d="M5400 275 l0 -275 150 0 150 0 0 40 0 40 -110 0 -110 0 0 90 0 90
110 0 110 0 0 40 0 40 -110 0 -110 0 0 65 0 65 110 0 110 0 0 40 0 40 -150 0
-150 0 0 -275z"/>
<path d="M5850 276 l0 -276 40 0 40 0 0 111 c0 82 3 110 12 107 7 -3 46 -52
87 -111 l74 -107 48 0 c27 0 49 3 49 6 0 4 -36 56 -81 116 -44 61 -79 111 -77
111 63 31 80 45 99 84 26 53 22 121 -8 162 -38 50 -79 65 -185 69 l-98 4 0
-276z m203 166 c13 -14 21 -34 21 -57 0 -50 -30 -77 -93 -83 l-51 -5 0 88 0
88 51 -5 c33 -4 58 -12 72 -26z"/>
<path d="M0 233 l0 -168 165 165 c91 91 165 166 165 167 0 2 -74 3 -165 3
l-165 0 0 -167z"/>
<path d="M265 200 l-200 -200 718 0 717 0 0 200 0 200 -518 0 -517 0 -200
-200z"/>
</g>
</svg>
