<?xml version="1.0" standalone="no"?>
<!DOCTYPE svg PUBLIC "-//W3C//DTD SVG 20010904//EN"
 "http://www.w3.org/TR/2001/REC-SVG-20010904/DTD/svg10.dtd">
<svg version="1.0" xmlns="http://www.w3.org/2000/svg"
 width="310.000000pt" height="310.000000pt" viewBox="0 0 310.000000 310.000000"
 preserveAspectRatio="xMidYMid meet">

<g transform="translate(0.000000,310.000000) scale(0.100000,-0.100000)"
fill="#000000" stroke="none">
<path d="M595 2378 c-3 -7 -4 -395 -3 -863 l3 -850 180 0 180 0 3 538 c1 295
6 537 10 537 4 0 100 -189 214 -420 l207 -420 138 0 c76 0 143 4 149 8 6 4 57
101 114 217 215 439 302 610 311 613 5 2 9 -209 9 -537 l0 -541 183 2 182 3 0
860 0 860 -220 0 -219 0 -18 -35 c-24 -47 -213 -439 -248 -515 -15 -33 -71
-149 -124 -259 -53 -109 -96 -202 -96 -207 0 -5 -4 -9 -8 -9 -8 0 -58 100
-321 645 -67 138 -136 279 -154 315 l-32 65 -218 3 c-169 2 -219 0 -222 -10z"/>
</g>
</svg>
